<?xml version="1.0" encoding="UTF-8" standalone="no"?><!DOCTYPE svg PUBLIC "-//W3C//DTD SVG 1.1//EN" "http://www.w3.org/Graphics/SVG/1.1/DTD/svg11.dtd"><svg width="100%" height="100%" viewBox="0 0 1120 200" version="1.1" xmlns="http://www.w3.org/2000/svg" xmlns:xlink="http://www.w3.org/1999/xlink" xml:space="preserve" style="fill-rule:evenodd;clip-rule:evenodd;stroke-linejoin:round;stroke-miterlimit:1.41421;"><g transform="matrix(1,-2.37941e-19,-2.76578e-19,1,-255.858,-250.765)"><path d="M392.475,328.948c4,-7.067 8,-14.167 12,-21.3c4,-7.134 8.4,-13.734 13.2,-19.8c4.8,-6.067 10.267,-11.434 16.4,-16.1c6.133,-4.667 13.267,-8.134 21.4,-10.4c1.6,0 3.033,0.066 4.3,0.2c1.267,0.133 2.633,0.2 4.1,0.2c4.4,0 7.233,-0.234 8.5,-0.7c1.267,-0.467 1.9,-1.234 1.9,-2.3c0,-0.4 -0.3,-0.8 -0.9,-1.2c-0.6,-0.4 -1.433,-0.6 -2.5,-0.6c-1.333,0 -2.767,0.1 -4.3,0.3c-1.533,0.2 -3.5,0.433 -5.9,0.7c-2.4,0.266 -5.4,0.5 -9,0.7c-3.6,0.2 -8.2,0.3 -13.8,0.3c-8.667,0 -18.033,0.333 -28.1,1c-10.067,0.666 -20.1,1.833 -30.1,3.5c-10,1.666 -19.6,3.9 -28.8,6.7c-9.2,2.8 -17.367,6.266 -24.5,10.4c-7.133,4.133 -12.8,9.066 -17,14.8c-4.2,5.733 -6.3,12.333 -6.3,19.8c0,7.466 2.333,13.466 7,18c4.667,4.533 10.667,6.8 18,6.8c5.2,0 10.2,-0.734 15,-2.2c4.8,-1.467 9.033,-3.634 12.7,-6.5c3.667,-2.867 6.633,-6.434 8.9,-10.7c2.267,-4.267 3.4,-9.267 3.4,-15c0,-2 -0.3,-4.134 -0.9,-6.4c-0.6,-2.267 -1.3,-4.134 -2.1,-5.6l-2,0.4c0.667,1.466 1.267,3.233 1.8,5.3c0.533,2.066 0.8,4.166 0.8,6.3c0,4.266 -0.767,8.2 -2.3,11.8c-1.533,3.6 -3.6,6.733 -6.2,9.4c-2.6,2.666 -5.6,4.733 -9,6.2c-3.4,1.466 -7.033,2.2 -10.9,2.2c-5.467,0 -9.733,-1.834 -12.8,-5.5c-3.067,-3.667 -4.6,-8.3 -4.6,-13.9c0,-7.734 2.167,-14.4 6.5,-20c4.333,-5.6 10.033,-10.434 17.1,-14.5c7.067,-4.067 15.133,-7.367 24.2,-9.9c9.067,-2.534 18.4,-4.534 28,-6c9.6,-1.467 19.033,-2.5 28.3,-3.1c9.267,-0.6 17.633,-0.9 25.1,-0.9l0,0.4c-13.733,4.8 -25.033,10.133 -33.9,16c-8.867,5.866 -16.233,12.066 -22.1,18.6c-5.867,6.533 -10.767,13.4 -14.7,20.6c-3.933,7.2 -7.867,14.6 -11.8,22.2c-3.933,7.6 -8.333,15.3 -13.2,23.1c-4.867,7.8 -11.233,15.633 -19.1,23.5c-5.467,5.466 -10.967,9.366 -16.5,11.7c-5.533,2.333 -12.033,3.5 -19.5,3.5c-6.267,0 -11.033,-1.534 -14.3,-4.6c-3.267,-3.067 -4.9,-7.867 -4.9,-14.4c5.067,-0.4 7.6,-3.4 7.6,-9c0,-2.667 -0.933,-4.9 -2.8,-6.7c-1.867,-1.8 -4.133,-2.7 -6.8,-2.7c-2.267,0 -4.167,0.466 -5.7,1.4c-1.533,0.933 -2.8,2.166 -3.8,3.7c-1,1.533 -1.733,3.266 -2.2,5.2c-0.467,1.933 -0.7,3.833 -0.7,5.7c0,4.266 1.2,7.9 3.6,10.9c2.4,3 5.433,5.466 9.1,7.4c3.667,1.933 7.567,3.333 11.7,4.2c4.133,0.866 7.867,1.3 11.2,1.3c11.733,0 22.167,-1.967 31.3,-5.9c9.133,-3.934 17.3,-9.2 24.5,-15.8c7.2,-6.6 13.667,-14.234 19.4,-22.9c5.733,-8.667 11,-17.8 15.8,-27.4l29.8,0c-3.6,7.2 -6.733,15.1 -9.4,23.7c-2.667,8.6 -4,17.1 -4,25.5c0,3.2 0.3,6.233 0.9,9.1c0.6,2.866 1.6,5.4 3,7.6c1.4,2.2 3.3,3.966 5.7,5.3c2.4,1.333 5.4,2 9,2c5.867,0 11.867,-2.067 18,-6.2c6.133,-4.134 12.067,-9.134 17.8,-15c5.733,-5.867 11.033,-11.967 15.9,-18.3c4.867,-6.334 8.967,-11.634 12.3,-15.9l-1.8,-1.4c-1.333,1.733 -3.2,4.133 -5.6,7.2c-2.4,3.066 -5.067,6.433 -8,10.1c-2.933,3.666 -6.1,7.366 -9.5,11.1c-3.4,3.733 -6.767,7.166 -10.1,10.3c-3.333,3.133 -6.533,5.666 -9.6,7.6c-3.067,1.933 -5.867,2.9 -8.4,2.9c-2,0 -3.667,-0.467 -5,-1.4c-1.333,-0.934 -2.4,-2.134 -3.2,-3.6c-0.8,-1.467 -1.367,-3.1 -1.7,-4.9c-0.333,-1.8 -0.5,-3.567 -0.5,-5.3c0,-7.467 1.2,-15.434 3.6,-23.9c2.4,-8.467 5.5,-16.867 9.3,-25.2c3.8,-8.334 8.167,-16.234 13.1,-23.7c4.933,-7.467 9.867,-13.867 14.8,-19.2c2.533,-2.667 5.367,-5.5 8.5,-8.5c3.133,-3 6.533,-5.8 10.2,-8.4c3.667,-2.6 7.667,-4.767 12,-6.5c4.333,-1.734 8.967,-2.6 13.9,-2.6c3.067,0 5.467,0.866 7.2,2.6c1.733,1.733 3.3,3.666 4.7,5.8c1.4,2.133 2.833,4.066 4.3,5.8c1.467,1.733 3.4,2.6 5.8,2.6c2.267,0 4.233,-0.6 5.9,-1.8c1.667,-1.2 2.5,-3 2.5,-5.4c0,-2.4 -0.733,-4.434 -2.2,-6.1c-1.467,-1.667 -3.3,-3.034 -5.5,-4.1c-2.2,-1.067 -4.667,-1.834 -7.4,-2.3c-2.733,-0.467 -5.3,-0.7 -7.7,-0.7c-9.867,0 -19.6,1.833 -29.2,5.5c-9.6,3.666 -18.633,8.633 -27.1,14.9c-8.467,6.266 -16.233,13.566 -23.3,21.9c-7.067,8.333 -13,17.166 -17.8,26.5l-30,0Z" style="fill:#fff;fill-rule:nonzero;stroke-width:1px;stroke:#fff;"/><path d="M540.075,340.148c-1.733,-4.267 -3.933,-7.4 -6.6,-9.4c-2.667,-2 -6.333,-3 -11,-3c-6.133,0 -12.567,1.633 -19.3,4.9c-6.733,3.266 -12.833,7.533 -18.3,12.8c-5.467,5.266 -10,11.166 -13.6,17.7c-3.6,6.533 -5.4,13.066 -5.4,19.6c0,2.8 0.333,5.5 1,8.1c0.667,2.6 1.7,4.933 3.1,7c1.4,2.066 3.233,3.7 5.5,4.9c2.267,1.2 5,1.8 8.2,1.8c6,0 11.6,-1.6 16.8,-4.8c5.2,-3.2 9.867,-7.134 14,-11.8l0.4,0c-0.267,0.533 -0.467,1.266 -0.6,2.2c-0.133,0.933 -0.2,1.933 -0.2,3c0,3.2 1.167,5.9 3.5,8.1c2.333,2.2 5.633,3.3 9.9,3.3c6.133,0 12.3,-2.034 18.5,-6.1c6.2,-4.067 12.5,-9.3 18.9,-15.7c6.4,-6.4 11.867,-12.434 16.4,-18.1c4.533,-5.667 8.533,-10.834 12,-15.5l-1.4,-0.8c-1.2,1.6 -2.8,3.633 -4.8,6.1c-2,2.466 -4.2,5.133 -6.6,8c-2.4,2.866 -4.9,5.766 -7.5,8.7c-2.6,2.933 -5.167,5.666 -7.7,8.2c-6,6.133 -11.733,11.066 -17.2,14.8c-5.467,3.733 -9.8,5.6 -13,5.6c-3.333,0 -5,-1.667 -5,-5c0,-2.4 0.7,-5.3 2.1,-8.7c1.4,-3.4 3.233,-7.067 5.5,-11c2.267,-3.934 4.767,-8 7.5,-12.2c2.733,-4.2 5.433,-8.267 8.1,-12.2c2.667,-3.934 5.133,-7.6 7.4,-11c2.267,-3.4 4,-6.3 5.2,-8.7l-20.8,1.2l-5,8ZM485.075,383.348c0,-2.667 0.533,-5.834 1.6,-9.5c1.067,-3.667 2.533,-7.5 4.4,-11.5c1.867,-4 4.1,-7.9 6.7,-11.7c2.6,-3.8 5.333,-7.234 8.2,-10.3c2.867,-3.067 5.867,-5.534 9,-7.4c3.133,-1.867 6.233,-2.8 9.3,-2.8c3.867,0 6.467,1 7.8,3c1.333,2 2,4.8 2,8.4c0,2.533 -0.567,5.633 -1.7,9.3c-1.133,3.666 -2.667,7.566 -4.6,11.7c-1.933,4.133 -4.2,8.233 -6.8,12.3c-2.6,4.066 -5.333,7.766 -8.2,11.1c-2.867,3.333 -5.833,6.1 -8.9,8.3c-3.067,2.2 -6,3.366 -8.8,3.5c-4.133,0 -6.833,-1.434 -8.1,-4.3c-1.267,-2.867 -1.9,-6.234 -1.9,-10.1Z" style="fill:#fff;fill-rule:nonzero;stroke-width:1px;stroke:#fff;"/><path d="M598.075,331.948c-6,9.333 -11,17.166 -15,23.5c-4,6.333 -7.2,11.633 -9.6,15.9c-2.4,4.266 -4.1,7.833 -5.1,10.7c-1,2.866 -1.5,5.633 -1.5,8.3c0,3.866 1.2,7 3.6,9.4c2.4,2.4 5.8,3.6 10.2,3.6c4.667,0 9.767,-1.534 15.3,-4.6c5.533,-3.067 12.167,-8.467 19.9,-16.2c2.667,-2.667 5.4,-5.467 8.2,-8.4c2.8,-2.934 5.533,-5.9 8.2,-8.9c2.667,-3 5.167,-5.867 7.5,-8.6c2.333,-2.734 4.3,-5.167 5.9,-7.3l-1.8,-1.2c-1.2,1.333 -2.767,3.133 -4.7,5.4c-1.933,2.266 -4.133,4.8 -6.6,7.6c-2.467,2.8 -5.1,5.7 -7.9,8.7c-2.8,3 -5.667,6.033 -8.6,9.1c-7.333,7.466 -13.433,12.733 -18.3,15.8c-4.867,3.066 -8.633,4.6 -11.3,4.6c-1.2,0 -2.1,-0.5 -2.7,-1.5c-0.6,-1 -0.9,-2.3 -0.9,-3.9c0,-2 0.7,-4.567 2.1,-7.7c1.4,-3.134 3.533,-7.167 6.4,-12.1c2.867,-4.934 6.567,-10.9 11.1,-17.9c4.533,-7 9.933,-15.434 16.2,-25.3l-20.6,1ZM630.275,286.548c-3.067,0 -5.767,1.033 -8.1,3.1c-2.333,2.066 -3.5,4.633 -3.5,7.7c0,3.066 1.067,5.366 3.2,6.9c2.133,1.533 4.667,2.3 7.6,2.3c2.667,0 5.067,-1.1 7.2,-3.3c2.133,-2.2 3.2,-4.634 3.2,-7.3c0,-2.534 -0.967,-4.734 -2.9,-6.6c-1.933,-1.867 -4.167,-2.8 -6.7,-2.8Z" style="fill:#fff;fill-rule:nonzero;stroke-width:1px;stroke:#fff;"/><path d="M666.675,273.148c0.133,-1.2 0.233,-2.734 0.3,-4.6c0.067,-1.867 -0.067,-3.667 -0.4,-5.4c-0.333,-1.734 -0.967,-3.2 -1.9,-4.4c-0.933,-1.2 -2.333,-1.8 -4.2,-1.8c-1.867,0 -3.267,0.6 -4.2,1.8c-0.933,1.2 -1.567,2.666 -1.9,4.4c-0.333,1.733 -0.467,3.533 -0.4,5.4c0.067,1.866 0.167,3.4 0.3,4.6l3.2,40.8c0,0.4 0.033,0.933 0.1,1.6c0.067,0.666 0.2,1.366 0.4,2.1c0.2,0.733 0.467,1.333 0.8,1.8c0.333,0.466 0.9,0.7 1.7,0.7c0.8,0 1.367,-0.234 1.7,-0.7c0.333,-0.467 0.6,-1.067 0.8,-1.8c0.2,-0.734 0.333,-1.434 0.4,-2.1c0.067,-0.667 0.1,-1.2 0.1,-1.6l3.2,-40.8Z" style="fill:#fff;fill-rule:nonzero;stroke-width:1px;stroke:#fff;"/><path d="M698.875,400.348c2,-0.4 3.9,-1.234 5.7,-2.5c1.8,-1.267 3.433,-2.834 4.9,-4.7c1.467,-1.867 2.633,-4 3.5,-6.4c0.867,-2.4 1.3,-4.867 1.3,-7.4c0,-4 -0.833,-7.467 -2.5,-10.4c-1.667,-2.934 -3.5,-5.734 -5.5,-8.4c-2,-2.667 -3.833,-5.434 -5.5,-8.3c-1.667,-2.867 -2.5,-6.167 -2.5,-9.9c0,-3.467 1,-6.367 3,-8.7c2,-2.334 4.867,-3.5 8.6,-3.5c3.067,0 5.367,1 6.9,3c1.533,2 2.3,4.333 2.3,7c0,2.533 -0.3,5.1 -0.9,7.7c-0.6,2.6 -1.633,5.233 -3.1,7.9c0.667,0.266 1.5,0.5 2.5,0.7c1,0.2 2.1,0.3 3.3,0.3c3.867,0 7.067,-1.234 9.6,-3.7c2.533,-2.467 3.8,-5.634 3.8,-9.5c0,-5.067 -2.167,-8.967 -6.5,-11.7c-4.333,-2.734 -9.7,-4.1 -16.1,-4.1c-3.6,0 -7.133,0.466 -10.6,1.4c-3.467,0.933 -6.6,2.366 -9.4,4.3c-2.8,1.933 -5.067,4.3 -6.8,7.1c-1.733,2.8 -2.6,6.066 -2.6,9.8c0,3.066 0.833,5.966 2.5,8.7c1.667,2.733 3.5,5.433 5.5,8.1c2,2.666 3.833,5.433 5.5,8.3c1.667,2.866 2.5,6.033 2.5,9.5c0,2.533 -0.6,4.866 -1.8,7c-1.2,2.133 -2.767,3.966 -4.7,5.5c-1.933,1.533 -4.133,2.7 -6.6,3.5c-2.467,0.8 -4.9,1.2 -7.3,1.2c-3.867,0 -7.233,-1.2 -10.1,-3.6c-2.867,-2.4 -4.3,-5.467 -4.3,-9.2c0,-1.467 0.233,-2.9 0.7,-4.3c0.467,-1.4 1.033,-2.7 1.7,-3.9c1.2,0.666 2.667,1 4.4,1c2.133,0 4,-0.734 5.6,-2.2c1.6,-1.467 2.4,-3.6 2.4,-6.4c0,-2.267 -0.833,-4.267 -2.5,-6c-1.667,-1.734 -4.033,-2.6 -7.1,-2.6c-2.4,0 -4.5,0.566 -6.3,1.7c-1.8,1.133 -3.3,2.566 -4.5,4.3c-1.2,1.733 -2.1,3.666 -2.7,5.8c-0.6,2.133 -0.9,4.266 -0.9,6.4c0,4 0.833,7.366 2.5,10.1c1.667,2.733 3.867,4.933 6.6,6.6c2.733,1.666 5.8,2.866 9.2,3.6c3.4,0.733 6.833,1.1 10.3,1.1c9.733,0 18.367,-1.534 25.9,-4.6c7.533,-3.067 14.467,-7.134 20.8,-12.2c6.333,-5.067 12.167,-10.9 17.5,-17.5c5.333,-6.6 10.667,-13.367 16,-20.3l-1.6,-1.2c-4.267,5.6 -8.633,11.166 -13.1,16.7c-4.467,5.533 -9.233,10.666 -14.3,15.4c-5.067,4.733 -10.5,8.866 -16.3,12.4c-5.8,3.533 -12.1,6.033 -18.9,7.5l0,-0.4Z" style="fill:#fff;fill-rule:nonzero;stroke-width:1px;stroke:#fff;"/><path d="M868.986,344.805l0,26.758l11.817,0c7.552,0 12.988,-0.977 16.308,-2.93c3.255,-1.953 4.883,-5.404 4.883,-10.352c0,-4.622 -1.465,-8.04 -4.395,-10.254c-2.929,-2.148 -8.593,-3.222 -16.992,-3.222l-11.621,0ZM868.986,295.293l0,24.805l11.621,0c7.878,0 13.054,-1.14 15.528,-3.418c2.343,-2.279 3.515,-5.274 3.515,-8.985c0,-3.19 -1.074,-6.054 -3.222,-8.593c-2.149,-2.539 -8.041,-3.809 -17.676,-3.809l-9.766,0ZM881.486,401.348l-76.855,0l0,-32.52l11.816,0l0,-70.801l-11.816,0l0,-32.519l83.007,0c16.276,0 28.874,0.944 37.793,2.832c8.789,1.953 15.691,5.827 20.704,11.621c5.013,5.925 7.519,12.826 7.519,20.703c0,7.682 -2.376,13.802 -7.129,18.36c-4.883,4.687 -10.807,7.942 -17.773,9.765c9.57,2.865 16.927,7.292 22.07,13.281c5.208,6.12 7.813,12.989 7.813,20.606c0,9.114 -2.93,16.862 -8.79,23.242c-5.859,6.315 -13.899,10.449 -24.121,12.402c-10.091,2.019 -24.837,3.028 -44.238,3.028Z" style="fill:#fff;fill-rule:nonzero;stroke-width:1px;stroke:#fff;"/><path d="M1041.15,401.348l-67.871,0l0,-29.785l10.059,0l0,-76.27l-10.059,0l0,-29.785l59.18,0l0,106.055l8.691,0l0,29.785Z" style="fill:#fff;fill-rule:nonzero;stroke-width:1px;stroke:#fff;"/><path d="M1106.1,353.692c0,15.104 5.404,22.656 16.211,22.656c11.459,0 17.188,-7.617 17.188,-22.852c0,-6.966 -1.4,-12.37 -4.199,-16.211c-2.865,-3.841 -6.901,-5.761 -12.11,-5.761c-5.143,0 -9.277,1.888 -12.402,5.664c-3.125,3.776 -4.688,9.277 -4.688,16.504ZM1056.39,353.496c0,-13.932 5.86,-25.683 17.579,-35.254c11.718,-9.57 27.539,-14.355 47.461,-14.355c20.052,0 36.36,4.622 48.925,13.867c12.565,9.245 18.848,21.289 18.848,36.133c0,14.323 -5.99,26.269 -17.969,35.84c-11.979,9.57 -27.799,14.355 -47.461,14.355c-21.224,0 -37.76,-4.785 -49.609,-14.355c-11.849,-9.506 -17.774,-21.582 -17.774,-36.231Z" style="fill:#fff;fill-rule:nonzero;stroke-width:1px;stroke:#fff;"/><path d="M1254.14,354.57c0,5.795 1.465,10.612 4.395,14.454c2.93,3.906 7.096,5.859 12.5,5.859c5.729,0 9.993,-1.986 12.793,-5.957c2.799,-3.841 4.199,-8.692 4.199,-14.551c0,-6.38 -1.497,-11.556 -4.492,-15.527c-3.06,-4.037 -7.162,-6.055 -12.305,-6.055c-5.534,0 -9.765,2.116 -12.695,6.348c-2.93,4.166 -4.395,9.31 -4.395,15.429ZM1212.64,436.406l13.477,-24.023c7.617,3.19 17.839,4.785 30.664,4.785c8.464,0 15.072,-1.204 19.824,-3.613c4.818,-2.344 7.91,-5.111 9.278,-8.301c1.302,-3.19 1.953,-7.715 1.953,-13.574c-9.831,4.948 -20.801,7.422 -32.91,7.422c-14.128,0 -26.042,-4.037 -35.743,-12.11c-9.83,-8.008 -14.746,-19.108 -14.746,-33.3c0,-14.974 5.111,-26.856 15.332,-35.645c10.157,-8.789 22.461,-13.184 36.914,-13.184c11.849,0 22.233,2.605 31.153,7.813l0,-6.055l60.742,0l0,29.785l-11.816,0l0,51.953c0,11.589 -1.042,20.508 -3.125,26.758c-2.149,6.25 -5.99,11.589 -11.524,16.016c-5.534,4.622 -12.467,7.943 -20.801,9.961c-8.268,2.148 -19.238,3.223 -32.91,3.223c-6.12,0 -11.572,-0.196 -16.357,-0.586c-4.785,-0.391 -10.27,-1.042 -16.455,-1.954c-10.547,-1.692 -18.197,-3.483 -22.95,-5.371Z" style="fill:#fff;fill-rule:nonzero;stroke-width:1px;stroke:#fff;"/></g></svg>